<svg width="38" height="38" viewBox="0 0 38 38" fill="none" xmlns="http://www.w3.org/2000/svg">
<g filter="url(#filter0_di_1494_16252)">
<circle cx="19" cy="17" r="16" fill="#C00C76"/>
</g>
<g filter="url(#filter1_f_1494_16252)">
<circle cx="19" cy="17" r="13" fill="url(#paint0_linear_1494_16252)"/>
</g>
<g filter="url(#filter2_f_1494_16252)">
<path d="M6 12.5396C7.11043 9.82863 10.5158 4.32532 15.2536 4" stroke="url(#paint1_linear_1494_16252)" stroke-width="1.14286" stroke-linecap="round"/>
</g>
<g filter="url(#filter3_f_1494_16252)">
<ellipse cx="9.75838" cy="7.1303" rx="1.44588" ry="1.42327" fill="url(#paint2_radial_1494_16252)" fill-opacity="0.5"/>
</g>
<g filter="url(#filter4_f_1494_16252)">
<ellipse cx="0.570751" cy="1.71617" rx="0.570751" ry="1.71617" transform="matrix(0.839211 -0.543805 0.555895 0.831253 29.1328 8.03711)" fill="url(#paint3_radial_1494_16252)"/>
</g>
<g filter="url(#filter5_f_1494_16252)" style="mix-blend-mode:overlay">
<ellipse cx="0.832665" cy="2.62556" rx="0.832665" ry="2.62556" transform="matrix(0.619548 0.784959 -0.794327 0.607491 30.4141 25.502)" fill="url(#paint4_radial_1494_16252)"/>
</g>
<g filter="url(#filter6_d_1494_16252)">
<mask id="path-7-inside-1_1494_16252" fill="white">
<path d="M23.0698 9.67427C23.9689 8.77523 25.4266 8.77525 26.3257 9.67427C27.2247 10.5733 27.2247 12.0311 26.3257 12.9301L22.2553 16.9995L26.3257 21.0698C27.2247 21.9689 27.2247 23.4266 26.3257 24.3256C25.4266 25.2247 23.9689 25.2247 23.0698 24.3256L18.9995 20.2553L14.9301 24.3256C14.0311 25.2246 12.5733 25.2247 11.6743 24.3256C10.7752 23.4266 10.7753 21.9689 11.6743 21.0698L15.7436 16.9995L11.6743 12.9301C10.7753 12.0311 10.7752 10.5733 11.6743 9.67427C12.5733 8.77529 14.0311 8.77529 14.9301 9.67427L18.9995 13.7436L23.0698 9.67427Z"/>
</mask>
<path d="M23.0698 9.67427C23.9689 8.77523 25.4266 8.77525 26.3257 9.67427C27.2247 10.5733 27.2247 12.0311 26.3257 12.9301L22.2553 16.9995L26.3257 21.0698C27.2247 21.9689 27.2247 23.4266 26.3257 24.3256C25.4266 25.2247 23.9689 25.2247 23.0698 24.3256L18.9995 20.2553L14.9301 24.3256C14.0311 25.2246 12.5733 25.2247 11.6743 24.3256C10.7752 23.4266 10.7753 21.9689 11.6743 21.0698L15.7436 16.9995L11.6743 12.9301C10.7753 12.0311 10.7752 10.5733 11.6743 9.67427C12.5733 8.77529 14.0311 8.77529 14.9301 9.67427L18.9995 13.7436L23.0698 9.67427Z" fill="url(#paint5_linear_1494_16252)"/>
<path d="M23.0698 9.67427L23.4233 10.0279L23.4233 10.0278L23.0698 9.67427ZM26.3257 9.67427L26.6792 9.32072L26.6792 9.32071L26.3257 9.67427ZM26.3257 12.9301L26.6792 13.2837L26.6792 13.2837L26.3257 12.9301ZM22.2553 16.9995L21.9018 16.6459L21.5482 16.9994L21.9018 17.353L22.2553 16.9995ZM26.3257 21.0698L25.9721 21.4233L25.9721 21.4233L26.3257 21.0698ZM26.3257 24.3256L26.6792 24.6792L26.6792 24.6792L26.3257 24.3256ZM23.0698 24.3256L22.7162 24.6792L22.7162 24.6792L23.0698 24.3256ZM18.9995 20.2553L19.353 19.9018L18.9994 19.5482L18.6459 19.9018L18.9995 20.2553ZM14.9301 24.3256L15.2837 24.6792L15.2837 24.6792L14.9301 24.3256ZM11.6743 24.3256L11.3207 24.6792L11.3207 24.6792L11.6743 24.3256ZM11.6743 21.0698L12.0278 21.4233L12.0279 21.4233L11.6743 21.0698ZM15.7436 16.9995L16.0972 17.353L16.4507 16.9994L16.0972 16.6459L15.7436 16.9995ZM11.6743 12.9301L11.3207 13.2837L11.3207 13.2837L11.6743 12.9301ZM11.6743 9.67427L11.3207 9.32071L11.3207 9.32072L11.6743 9.67427ZM14.9301 9.67427L15.2837 9.32072L15.2837 9.3207L14.9301 9.67427ZM18.9995 13.7436L18.6459 14.0972L18.9994 14.4507L19.353 14.0972L18.9995 13.7436ZM23.0698 9.67427L23.4233 10.0278C24.1271 9.32405 25.2683 9.32406 25.9721 10.0278L26.3257 9.67427L26.6792 9.32071C25.5849 8.22645 23.8106 8.22641 22.7162 9.32072L23.0698 9.67427ZM26.3257 9.67427L25.9721 10.0278C26.6759 10.7316 26.6759 11.8728 25.9721 12.5766L26.3257 12.9301L26.6792 13.2837C27.7735 12.1894 27.7735 10.4151 26.6792 9.32072L26.3257 9.67427ZM26.3257 12.9301L25.9721 12.5765L21.9018 16.6459L22.2553 16.9995L22.6088 17.3531L26.6792 13.2837L26.3257 12.9301ZM22.2553 16.9995L21.9018 17.353L25.9721 21.4233L26.3257 21.0698L26.6792 20.7162L22.6089 16.6459L22.2553 16.9995ZM26.3257 21.0698L25.9721 21.4233C26.6759 22.1271 26.6759 23.2683 25.9721 23.9721L26.3257 24.3256L26.6792 24.6792C27.7735 23.5849 27.7735 21.8106 26.6792 20.7162L26.3257 21.0698ZM26.3257 24.3256L25.9721 23.9721C25.2683 24.6759 24.1272 24.6759 23.4233 23.9721L23.0698 24.3256L22.7162 24.6792C23.8106 25.7735 25.5849 25.7735 26.6792 24.6792L26.3257 24.3256ZM23.0698 24.3256L23.4233 23.9721L19.353 19.9018L18.9995 20.2553L18.6459 20.6089L22.7162 24.6792L23.0698 24.3256ZM18.9995 20.2553L18.6459 19.9018L14.5765 23.9721L14.9301 24.3256L15.2837 24.6792L19.3531 20.6088L18.9995 20.2553ZM14.9301 24.3256L14.5766 23.9721C13.8728 24.6758 12.7316 24.6758 12.0278 23.9721L11.6743 24.3256L11.3207 24.6792C12.4151 25.7735 14.1894 25.7734 15.2837 24.6792L14.9301 24.3256ZM11.6743 24.3256L12.0278 23.9721C11.324 23.2683 11.3241 22.1272 12.0278 21.4233L11.6743 21.0698L11.3207 20.7162C10.2265 21.8106 10.2264 23.5849 11.3207 24.6792L11.6743 24.3256ZM11.6743 21.0698L12.0279 21.4233L16.0972 17.353L15.7436 16.9995L15.39 16.646L11.3207 20.7163L11.6743 21.0698ZM15.7436 16.9995L16.0972 16.6459L12.0278 12.5766L11.6743 12.9301L11.3207 13.2837L15.3901 17.353L15.7436 16.9995ZM11.6743 12.9301L12.0278 12.5766C11.3241 11.8728 11.324 10.7316 12.0278 10.0278L11.6743 9.67427L11.3207 9.32072C10.2264 10.415 10.2265 12.1894 11.3207 13.2837L11.6743 12.9301ZM11.6743 9.67427L12.0278 10.0278C12.7316 9.3241 13.8728 9.3241 14.5766 10.0278L14.9301 9.67427L15.2837 9.3207C14.1894 8.22648 12.4151 8.22648 11.3207 9.32071L11.6743 9.67427ZM14.9301 9.67427L14.5766 10.0278L18.6459 14.0972L18.9995 13.7436L19.353 13.3901L15.2837 9.32072L14.9301 9.67427ZM18.9995 13.7436L19.353 14.0972L23.4233 10.0279L23.0698 9.67427L22.7163 9.32068L18.646 13.39L18.9995 13.7436Z" fill="white" mask="url(#path-7-inside-1_1494_16252)"/>
</g>
<defs>
<filter id="filter0_di_1494_16252" x="0" y="0" width="38" height="38" filterUnits="userSpaceOnUse" color-interpolation-filters="sRGB">
<feFlood flood-opacity="0" result="BackgroundImageFix"/>
<feColorMatrix in="SourceAlpha" type="matrix" values="0 0 0 0 0 0 0 0 0 0 0 0 0 0 0 0 0 0 127 0" result="hardAlpha"/>
<feOffset dy="2"/>
<feGaussianBlur stdDeviation="1.5"/>
<feComposite in2="hardAlpha" operator="out"/>
<feColorMatrix type="matrix" values="0 0 0 0 0.3625 0 0 0 0 0.00604167 0 0 0 0 0.22751 0 0 0 0.25 0"/>
<feBlend mode="normal" in2="BackgroundImageFix" result="effect1_dropShadow_1494_16252"/>
<feBlend mode="normal" in="SourceGraphic" in2="effect1_dropShadow_1494_16252" result="shape"/>
<feColorMatrix in="SourceAlpha" type="matrix" values="0 0 0 0 0 0 0 0 0 0 0 0 0 0 0 0 0 0 127 0" result="hardAlpha"/>
<feOffset dy="-1"/>
<feGaussianBlur stdDeviation="1"/>
<feComposite in2="hardAlpha" operator="arithmetic" k2="-1" k3="1"/>
<feColorMatrix type="matrix" values="0 0 0 0 1 0 0 0 0 0.370833 0 0 0 0 0.729849 0 0 0 1 0"/>
<feBlend mode="normal" in2="shape" result="effect2_innerShadow_1494_16252"/>
</filter>
<filter id="filter1_f_1494_16252" x="3.71429" y="1.71429" width="30.5714" height="30.5714" filterUnits="userSpaceOnUse" color-interpolation-filters="sRGB">
<feFlood flood-opacity="0" result="BackgroundImageFix"/>
<feBlend mode="normal" in="SourceGraphic" in2="BackgroundImageFix" result="shape"/>
<feGaussianBlur stdDeviation="1.14286" result="effect1_foregroundBlur_1494_16252"/>
</filter>
<filter id="filter2_f_1494_16252" x="4.85826" y="2.85631" width="11.5413" height="10.8265" filterUnits="userSpaceOnUse" color-interpolation-filters="sRGB">
<feFlood flood-opacity="0" result="BackgroundImageFix"/>
<feBlend mode="normal" in="SourceGraphic" in2="BackgroundImageFix" result="shape"/>
<feGaussianBlur stdDeviation="0.285714" result="effect1_foregroundBlur_1494_16252"/>
</filter>
<filter id="filter3_f_1494_16252" x="7.74107" y="5.1356" width="4.03348" height="3.98856" filterUnits="userSpaceOnUse" color-interpolation-filters="sRGB">
<feFlood flood-opacity="0" result="BackgroundImageFix"/>
<feBlend mode="normal" in="SourceGraphic" in2="BackgroundImageFix" result="shape"/>
<feGaussianBlur stdDeviation="0.285714" result="effect1_foregroundBlur_1494_16252"/>
</filter>
<filter id="filter4_f_1494_16252" x="28.9286" y="7.12193" width="3.27567" height="4.06278" filterUnits="userSpaceOnUse" color-interpolation-filters="sRGB">
<feFlood flood-opacity="0" result="BackgroundImageFix"/>
<feBlend mode="normal" in="SourceGraphic" in2="BackgroundImageFix" result="shape"/>
<feGaussianBlur stdDeviation="0.285714" result="effect1_foregroundBlur_1494_16252"/>
</filter>
<filter id="filter5_f_1494_16252" x="26.1239" y="25.4559" width="5.43973" height="4.59012" filterUnits="userSpaceOnUse" color-interpolation-filters="sRGB">
<feFlood flood-opacity="0" result="BackgroundImageFix"/>
<feBlend mode="normal" in="SourceGraphic" in2="BackgroundImageFix" result="shape"/>
<feGaussianBlur stdDeviation="0.285714" result="effect1_foregroundBlur_1494_16252"/>
</filter>
<filter id="filter6_d_1494_16252" x="10" y="9" width="18" height="18" filterUnits="userSpaceOnUse" color-interpolation-filters="sRGB">
<feFlood flood-opacity="0" result="BackgroundImageFix"/>
<feColorMatrix in="SourceAlpha" type="matrix" values="0 0 0 0 0 0 0 0 0 0 0 0 0 0 0 0 0 0 127 0" result="hardAlpha"/>
<feOffset dy="1"/>
<feGaussianBlur stdDeviation="0.5"/>
<feComposite in2="hardAlpha" operator="out"/>
<feColorMatrix type="matrix" values="0 0 0 0 0 0 0 0 0 0 0 0 0 0 0 0 0 0 0.25 0"/>
<feBlend mode="normal" in2="BackgroundImageFix" result="effect1_dropShadow_1494_16252"/>
<feBlend mode="normal" in="SourceGraphic" in2="effect1_dropShadow_1494_16252" result="shape"/>
</filter>
<linearGradient id="paint0_linear_1494_16252" x1="19" y1="4" x2="19" y2="30" gradientUnits="userSpaceOnUse">
<stop offset="0.1875" stop-color="#FF1BC1"/>
<stop offset="1" stop-color="#A20970"/>
</linearGradient>
<linearGradient id="paint1_linear_1494_16252" x1="15.349" y1="3.28836" x2="4.40949" y2="10.6508" gradientUnits="userSpaceOnUse">
<stop stop-color="#F653B0" stop-opacity="0"/>
<stop offset="0.473958" stop-color="#FFB9E1"/>
<stop offset="1" stop-color="#F754B1" stop-opacity="0"/>
</linearGradient>
<radialGradient id="paint2_radial_1494_16252" cx="0" cy="0" r="1" gradientUnits="userSpaceOnUse" gradientTransform="translate(9.75838 7.1303) rotate(90) scale(1.42327 1.44588)">
<stop stop-color="white"/>
<stop offset="1" stop-color="white" stop-opacity="0"/>
</radialGradient>
<radialGradient id="paint3_radial_1494_16252" cx="0" cy="0" r="1" gradientUnits="userSpaceOnUse" gradientTransform="translate(0.570751 1.71617) rotate(90) scale(1.71617 0.570751)">
<stop stop-color="white"/>
<stop offset="1" stop-color="white" stop-opacity="0"/>
</radialGradient>
<radialGradient id="paint4_radial_1494_16252" cx="0" cy="0" r="1" gradientUnits="userSpaceOnUse" gradientTransform="translate(0.832665 2.62556) rotate(90) scale(2.62556 0.832665)">
<stop stop-color="white"/>
<stop offset="1" stop-color="white" stop-opacity="0"/>
</radialGradient>
<linearGradient id="paint5_linear_1494_16252" x1="18.9999" y1="9" x2="18.9999" y2="24.9998" gradientUnits="userSpaceOnUse">
<stop stop-color="#FDD4ED"/>
<stop offset="0.489583" stop-color="white"/>
<stop offset="0.541667" stop-color="#FDD4ED"/>
</linearGradient>
</defs>
</svg>
