<svg width="87" height="87" viewBox="0 0 87 87" fill="none" xmlns="http://www.w3.org/2000/svg">
<g filter="url(#filter0_di_1490_9618)">
<path d="M79.0859 57.8125C79.0859 68.0298 70.6771 76.5402 60.7775 74.0121C48.0123 70.7521 36.234 64.1123 26.76 54.6384C17.2861 45.1645 10.6463 33.3862 7.38635 20.621C4.85821 10.7214 13.3687 2.31253 23.5859 2.31252L60.5859 2.31251C70.8032 2.3125 79.0859 10.5952 79.0859 20.8125V57.8125Z" fill="#01719E"/>
</g>
<g filter="url(#filter1_f_1490_9618)">
<path d="M74.4609 53.1875C74.4609 63.4048 65.9908 71.953 56.2491 68.872C46.5448 65.8029 37.616 60.2983 30.311 52.7227C22.8562 44.9918 17.4812 35.5073 14.5594 25.2042C11.7719 15.3745 20.3062 6.93752 30.5234 6.93752L55.9609 6.93751C66.1782 6.9375 74.4609 15.2202 74.4609 25.4375V53.1875Z" fill="url(#paint0_linear_1490_9618)"/>
</g>
<g filter="url(#filter2_f_1490_9618)">
<path d="M11.4347 25.4069C9.43034 18.6653 11.587 7.91033 23.0611 6.48208" stroke="url(#paint1_linear_1490_9618)" stroke-width="2.64286" stroke-linecap="round"/>
</g>
<g filter="url(#filter3_f_1490_9618)">
<circle cx="13.6036" cy="13.1421" r="3.30357" transform="rotate(-11.4276 13.6036 13.1421)" fill="url(#paint2_radial_1490_9618)" fill-opacity="0.5"/>
</g>
<g filter="url(#filter4_f_1490_9618)">
<ellipse cx="68.8023" cy="13.1002" rx="1.31022" ry="3.96429" transform="rotate(-41.0454 68.8023 13.1002)" fill="url(#paint3_radial_1490_9618)"/>
</g>
<g filter="url(#filter5_f_1490_9618)" style="mix-blend-mode:overlay">
<ellipse cx="71.1558" cy="67.6568" rx="1.92117" ry="6.03428" transform="rotate(52.1552 71.1558 67.6568)" fill="url(#paint4_radial_1490_9618)"/>
</g>
<g filter="url(#filter6_d_1490_9618)">
<mask id="path-7-inside-1_1490_9618" fill="white">
<path d="M44.2559 14.1805C45.9807 9.88516 52.0623 9.88515 53.7871 14.1805L54.7422 16.5613C55.6202 18.7481 57.8746 20.0568 60.209 19.7352L62.8096 19.3768C67.3366 18.7531 70.3619 23.9088 67.6094 27.5564L65.7862 29.9725C64.4045 31.8032 64.4046 34.3282 65.7862 36.159L67.6094 38.575C70.3623 42.2227 67.3368 47.3794 62.8096 46.7557L60.209 46.3973C57.8746 46.0757 55.6202 47.3843 54.7422 49.5711L53.7871 51.951C52.0624 56.2466 45.9806 56.2466 44.2559 51.951L43.3008 49.5711C42.4228 47.3843 40.1684 46.0757 37.834 46.3973L35.2334 46.7557C30.7062 47.3794 27.6807 42.2227 30.4336 38.575L32.2569 36.159C33.6384 34.3282 33.6385 31.8032 32.2569 29.9725L30.4336 27.5564C27.6811 23.9088 30.7064 18.7531 35.2334 19.3768L37.834 19.7352C40.1684 20.0568 42.4228 18.7481 43.3008 16.5613L44.2559 14.1805ZM49.0215 25.4373C44.5516 25.4373 40.9279 29.0611 40.9278 33.5311C40.9278 38.0011 44.5515 41.6248 49.0215 41.6248C53.4915 41.6248 57.1153 38.0011 57.1153 33.5311C57.1151 29.0612 53.4914 25.4373 49.0215 25.4373Z"/>
</mask>
<path d="M44.2559 14.1805C45.9807 9.88516 52.0623 9.88515 53.7871 14.1805L54.7422 16.5613C55.6202 18.7481 57.8746 20.0568 60.209 19.7352L62.8096 19.3768C67.3366 18.7531 70.3619 23.9088 67.6094 27.5564L65.7862 29.9725C64.4045 31.8032 64.4046 34.3282 65.7862 36.159L67.6094 38.575C70.3623 42.2227 67.3368 47.3794 62.8096 46.7557L60.209 46.3973C57.8746 46.0757 55.6202 47.3843 54.7422 49.5711L53.7871 51.951C52.0624 56.2466 45.9806 56.2466 44.2559 51.951L43.3008 49.5711C42.4228 47.3843 40.1684 46.0757 37.834 46.3973L35.2334 46.7557C30.7062 47.3794 27.6807 42.2227 30.4336 38.575L32.2569 36.159C33.6384 34.3282 33.6385 31.8032 32.2569 29.9725L30.4336 27.5564C27.6811 23.9088 30.7064 18.7531 35.2334 19.3768L37.834 19.7352C40.1684 20.0568 42.4228 18.7481 43.3008 16.5613L44.2559 14.1805ZM49.0215 25.4373C44.5516 25.4373 40.9279 29.0611 40.9278 33.5311C40.9278 38.0011 44.5515 41.6248 49.0215 41.6248C53.4915 41.6248 57.1153 38.0011 57.1153 33.5311C57.1151 29.0612 53.4914 25.4373 49.0215 25.4373Z" fill="url(#paint5_linear_1490_9618)"/>
<path d="M44.2559 14.1805L43.1829 13.7496L43.1828 13.75L44.2559 14.1805ZM53.7871 14.1805L54.8603 13.75L54.8601 13.7496L53.7871 14.1805ZM54.7422 16.5613L53.6691 16.9918L53.6692 16.9922L54.7422 16.5613ZM60.209 19.7352L60.3668 20.8806L60.3669 20.8806L60.209 19.7352ZM62.8096 19.3768L62.6518 18.2313L62.6517 18.2313L62.8096 19.3768ZM67.6094 27.5564L68.5323 28.2529L68.5324 28.2529L67.6094 27.5564ZM65.7862 29.9725L66.7091 30.669L66.7091 30.669L65.7862 29.9725ZM65.7862 36.159L64.8632 36.8555L64.8632 36.8555L65.7862 36.159ZM67.6094 38.575L66.6865 39.2715L66.6865 39.2715L67.6094 38.575ZM62.8096 46.7557L62.6517 47.9011L62.6518 47.9011L62.8096 46.7557ZM60.209 46.3973L60.3669 45.2518L60.3668 45.2518L60.209 46.3973ZM54.7422 49.5711L53.6692 49.1403L53.6691 49.1405L54.7422 49.5711ZM53.7871 51.951L54.8601 52.3818L54.8602 52.3816L53.7871 51.951ZM44.2559 51.951L43.1828 52.3816L43.1829 52.3818L44.2559 51.951ZM43.3008 49.5711L44.3739 49.1405L44.3738 49.1403L43.3008 49.5711ZM37.834 46.3973L37.6762 45.2518L37.6761 45.2518L37.834 46.3973ZM35.2334 46.7557L35.3912 47.9011L35.3913 47.9011L35.2334 46.7557ZM30.4336 38.575L31.3565 39.2715L31.3566 39.2715L30.4336 38.575ZM32.2569 36.159L33.1798 36.8555L33.1798 36.8555L32.2569 36.159ZM32.2569 29.9725L31.3339 30.669L31.3339 30.669L32.2569 29.9725ZM30.4336 27.5564L29.5107 28.2529L29.5107 28.2529L30.4336 27.5564ZM35.2334 19.3768L35.3913 18.2313L35.3912 18.2313L35.2334 19.3768ZM37.834 19.7352L37.6761 20.8806L37.6762 20.8806L37.834 19.7352ZM43.3008 16.5613L44.3738 16.9922L44.3739 16.9918L43.3008 16.5613ZM49.0215 25.4373L49.0215 24.2811H49.0215V25.4373ZM40.9278 33.5311L39.7715 33.531V33.5311H40.9278ZM49.0215 41.6248V42.7811H49.0215L49.0215 41.6248ZM57.1153 33.5311H58.2715V33.531L57.1153 33.5311ZM44.2559 14.1805L45.3288 14.6113C46.6653 11.2832 51.3777 11.2832 52.7142 14.6113L53.7871 14.1805L54.8601 13.7496C52.7469 8.4871 45.2962 8.48712 43.1829 13.7496L44.2559 14.1805ZM53.7871 14.1805L52.714 14.611L53.6691 16.9918L54.7422 16.5613L55.8153 16.1308L54.8603 13.75L53.7871 14.1805ZM54.7422 16.5613L53.6692 16.9922C54.745 19.6713 57.5069 21.2746 60.3668 20.8806L60.209 19.7352L60.0512 18.5897C58.2424 18.8389 56.4955 17.8248 55.8152 16.1305L54.7422 16.5613ZM60.209 19.7352L60.3669 20.8806L62.9674 20.5222L62.8096 19.3768L62.6517 18.2313L60.0511 18.5897L60.209 19.7352ZM62.8096 19.3768L62.9674 20.5222C66.4752 20.0389 68.8191 24.0337 66.6864 26.86L67.6094 27.5564L68.5324 28.2529C71.9047 23.7838 68.1981 17.4672 62.6518 18.2313L62.8096 19.3768ZM67.6094 27.5564L66.6865 26.86L64.8632 29.276L65.7862 29.9725L66.7091 30.669L68.5323 28.2529L67.6094 27.5564ZM65.7862 29.9725L64.8632 29.2759C63.1704 31.5189 63.1706 34.6125 64.8632 36.8555L65.7862 36.159L66.7091 35.4625C65.6386 34.0439 65.6385 32.0874 66.7091 30.669L65.7862 29.9725ZM65.7862 36.159L64.8632 36.8555L66.6865 39.2715L67.6094 38.575L68.5323 37.8785L66.7091 35.4625L65.7862 36.159ZM67.6094 38.575L66.6865 39.2715C68.8195 42.0979 66.4752 46.0935 62.9674 45.6102L62.8096 46.7557L62.6518 47.9011C68.1983 48.6652 71.9051 42.3475 68.5323 37.8785L67.6094 38.575ZM62.8096 46.7557L62.9674 45.6102L60.3669 45.2518L60.209 46.3973L60.0511 47.5427L62.6517 47.9011L62.8096 46.7557ZM60.209 46.3973L60.3668 45.2518C57.5069 44.8578 54.745 46.461 53.6692 49.1403L54.7422 49.5711L55.8152 50.0019C56.4955 48.3076 58.2423 47.2935 60.0512 47.5427L60.209 46.3973ZM54.7422 49.5711L53.6691 49.1405L52.7141 51.5203L53.7871 51.951L54.8602 52.3816L55.8153 50.0017L54.7422 49.5711ZM53.7871 51.951L52.7141 51.5202C51.3777 54.8486 46.6653 54.8486 45.3289 51.5202L44.2559 51.951L43.1829 52.3818C45.296 57.6447 52.747 57.6447 54.8601 52.3818L53.7871 51.951ZM44.2559 51.951L45.3289 51.5203L44.3739 49.1405L43.3008 49.5711L42.2277 50.0017L43.1828 52.3816L44.2559 51.951ZM43.3008 49.5711L44.3738 49.1403C43.298 46.461 40.5361 44.8578 37.6762 45.2518L37.834 46.3973L37.9918 47.5427C39.8007 47.2935 41.5475 48.3076 42.2278 50.0019L43.3008 49.5711ZM37.834 46.3973L37.6761 45.2518L35.0756 45.6102L35.2334 46.7557L35.3913 47.9011L37.9919 47.5427L37.834 46.3973ZM35.2334 46.7557L35.0756 45.6102C31.5678 46.0935 29.2235 42.0979 31.3565 39.2715L30.4336 38.575L29.5107 37.8785C26.1379 42.3475 29.8447 48.6652 35.3912 47.9011L35.2334 46.7557ZM30.4336 38.575L31.3566 39.2715L33.1798 36.8555L32.2569 36.159L31.3339 35.4625L29.5107 37.8785L30.4336 38.575ZM32.2569 36.159L33.1798 36.8555C34.8724 34.6125 34.8726 31.5189 33.1798 29.2759L32.2569 29.9725L31.3339 30.669C32.4045 32.0874 32.4044 34.0439 31.3339 35.4625L32.2569 36.159ZM32.2569 29.9725L33.1798 29.276L31.3566 26.86L30.4336 27.5564L29.5107 28.2529L31.3339 30.669L32.2569 29.9725ZM30.4336 27.5564L31.3566 26.86C29.2239 24.0337 31.5678 20.0389 35.0756 20.5222L35.2334 19.3768L35.3912 18.2313C29.8449 17.4672 26.1383 23.7838 29.5107 28.2529L30.4336 27.5564ZM35.2334 19.3768L35.0756 20.5222L37.6761 20.8806L37.834 19.7352L37.9919 18.5897L35.3913 18.2313L35.2334 19.3768ZM37.834 19.7352L37.6762 20.8806C40.5361 21.2746 43.298 19.6714 44.3738 16.9922L43.3008 16.5613L42.2278 16.1305C41.5475 17.8248 39.8006 18.8389 37.9918 18.5897L37.834 19.7352ZM43.3008 16.5613L44.3739 16.9918L45.329 14.611L44.2559 14.1805L43.1828 13.75L42.2277 16.1308L43.3008 16.5613ZM49.0215 25.4373V24.2811C43.9129 24.2811 39.7717 28.4226 39.7715 33.531L40.9278 33.5311L42.084 33.5311C42.0842 29.6997 45.1902 26.5936 49.0215 26.5936V25.4373ZM40.9278 33.5311H39.7715C39.7715 38.6397 43.9129 42.7811 49.0215 42.7811V41.6248V40.4686C45.19 40.4686 42.084 37.3625 42.084 33.5311H40.9278ZM49.0215 41.6248L49.0215 42.7811C54.1301 42.781 58.2715 38.6397 58.2715 33.5311H57.1153H55.959C55.959 37.3625 52.853 40.4685 49.0215 40.4686L49.0215 41.6248ZM57.1153 33.5311L58.2715 33.531C58.2713 28.4226 54.1301 24.2811 49.0215 24.2811L49.0215 25.4373L49.0215 26.5936C52.8528 26.5936 55.9589 29.6997 55.959 33.5311L57.1153 33.5311Z" fill="#013F5E" mask="url(#path-7-inside-1_1490_9618)"/>
</g>
<defs>
<filter id="filter0_di_1490_9618" x="0" y="0" width="86.0234" height="86.0234" filterUnits="userSpaceOnUse" color-interpolation-filters="sRGB">
<feFlood flood-opacity="0" result="BackgroundImageFix"/>
<feColorMatrix in="SourceAlpha" type="matrix" values="0 0 0 0 0 0 0 0 0 0 0 0 0 0 0 0 0 0 127 0" result="hardAlpha"/>
<feOffset dy="4.625"/>
<feGaussianBlur stdDeviation="3.46875"/>
<feComposite in2="hardAlpha" operator="out"/>
<feColorMatrix type="matrix" values="0 0 0 0 0.00784314 0 0 0 0 0.47451 0 0 0 0 0.65098 0 0 0 0.25 0"/>
<feBlend mode="normal" in2="BackgroundImageFix" result="effect1_dropShadow_1490_9618"/>
<feBlend mode="normal" in="SourceGraphic" in2="effect1_dropShadow_1490_9618" result="shape"/>
<feColorMatrix in="SourceAlpha" type="matrix" values="0 0 0 0 0 0 0 0 0 0 0 0 0 0 0 0 0 0 127 0" result="hardAlpha"/>
<feOffset dy="-2.3125"/>
<feGaussianBlur stdDeviation="2.3125"/>
<feComposite in2="hardAlpha" operator="arithmetic" k2="-1" k3="1"/>
<feColorMatrix type="matrix" values="0 0 0 0 0.0862745 0 0 0 0 0.843137 0 0 0 0 0.992157 0 0 0 1 0"/>
<feBlend mode="normal" in2="shape" result="effect2_innerShadow_1490_9618"/>
</filter>
<filter id="filter1_f_1490_9618" x="9.39844" y="2.3125" width="69.6875" height="71.8223" filterUnits="userSpaceOnUse" color-interpolation-filters="sRGB">
<feFlood flood-opacity="0" result="BackgroundImageFix"/>
<feBlend mode="normal" in="SourceGraphic" in2="BackgroundImageFix" result="shape"/>
<feGaussianBlur stdDeviation="2.3125" result="effect1_foregroundBlur_1490_9618"/>
</filter>
<filter id="filter2_f_1490_9618" x="8.12388" y="3.83873" width="17.5804" height="24.2112" filterUnits="userSpaceOnUse" color-interpolation-filters="sRGB">
<feFlood flood-opacity="0" result="BackgroundImageFix"/>
<feBlend mode="normal" in="SourceGraphic" in2="BackgroundImageFix" result="shape"/>
<feGaussianBlur stdDeviation="0.660714" result="effect1_foregroundBlur_1490_9618"/>
</filter>
<filter id="filter3_f_1490_9618" x="8.97545" y="8.51646" width="9.25223" height="9.25223" filterUnits="userSpaceOnUse" color-interpolation-filters="sRGB">
<feFlood flood-opacity="0" result="BackgroundImageFix"/>
<feBlend mode="normal" in="SourceGraphic" in2="BackgroundImageFix" result="shape"/>
<feGaussianBlur stdDeviation="0.660714" result="effect1_foregroundBlur_1490_9618"/>
</filter>
<filter id="filter4_f_1490_9618" x="64.6942" y="8.66685" width="8.21317" height="8.86747" filterUnits="userSpaceOnUse" color-interpolation-filters="sRGB">
<feFlood flood-opacity="0" result="BackgroundImageFix"/>
<feBlend mode="normal" in="SourceGraphic" in2="BackgroundImageFix" result="shape"/>
<feGaussianBlur stdDeviation="0.660714" result="effect1_foregroundBlur_1490_9618"/>
</filter>
<filter id="filter5_f_1490_9618" x="64.9208" y="62.3329" width="12.4632" height="10.6468" filterUnits="userSpaceOnUse" color-interpolation-filters="sRGB">
<feFlood flood-opacity="0" result="BackgroundImageFix"/>
<feBlend mode="normal" in="SourceGraphic" in2="BackgroundImageFix" result="shape"/>
<feGaussianBlur stdDeviation="0.660714" result="effect1_foregroundBlur_1490_9618"/>
</filter>
<filter id="filter6_d_1490_9618" x="27.0703" y="10.959" width="43.9062" height="48.8379" filterUnits="userSpaceOnUse" color-interpolation-filters="sRGB">
<feFlood flood-opacity="0" result="BackgroundImageFix"/>
<feColorMatrix in="SourceAlpha" type="matrix" values="0 0 0 0 0 0 0 0 0 0 0 0 0 0 0 0 0 0 127 0" result="hardAlpha"/>
<feOffset dy="2.3125"/>
<feGaussianBlur stdDeviation="1.15625"/>
<feComposite in2="hardAlpha" operator="out"/>
<feColorMatrix type="matrix" values="0 0 0 0 0 0 0 0 0 0 0 0 0 0 0 0 0 0 0.25 0"/>
<feBlend mode="normal" in2="BackgroundImageFix" result="effect1_dropShadow_1490_9618"/>
<feBlend mode="normal" in="SourceGraphic" in2="effect1_dropShadow_1490_9618" result="shape"/>
</filter>
<linearGradient id="paint0_linear_1490_9618" x1="43.2422" y1="6.9375" x2="43.2422" y2="71.6875" gradientUnits="userSpaceOnUse">
<stop stop-color="#04CFFA"/>
<stop offset="0.75048" stop-color="#01719E"/>
</linearGradient>
<linearGradient id="paint1_linear_1490_9618" x1="22.2262" y1="1.41527" x2="3.60661" y2="25.2876" gradientUnits="userSpaceOnUse">
<stop stop-color="#0274A1" stop-opacity="0"/>
<stop offset="0.473958" stop-color="#16D7FD"/>
<stop offset="1" stop-color="#0274A1" stop-opacity="0"/>
</linearGradient>
<radialGradient id="paint2_radial_1490_9618" cx="0" cy="0" r="1" gradientUnits="userSpaceOnUse" gradientTransform="translate(13.6036 13.1421) rotate(90) scale(3.30357)">
<stop stop-color="white"/>
<stop offset="1" stop-color="white" stop-opacity="0"/>
</radialGradient>
<radialGradient id="paint3_radial_1490_9618" cx="0" cy="0" r="1" gradientUnits="userSpaceOnUse" gradientTransform="translate(68.8023 13.1002) rotate(90) scale(3.96429 1.31022)">
<stop stop-color="white"/>
<stop offset="1" stop-color="white" stop-opacity="0"/>
</radialGradient>
<radialGradient id="paint4_radial_1490_9618" cx="0" cy="0" r="1" gradientUnits="userSpaceOnUse" gradientTransform="translate(71.1558 67.6568) rotate(90) scale(6.03428 1.92117)">
<stop stop-color="white"/>
<stop offset="1" stop-color="white" stop-opacity="0"/>
</radialGradient>
<linearGradient id="paint5_linear_1490_9618" x1="49.0598" y1="13.8749" x2="49.0598" y2="55.4673" gradientUnits="userSpaceOnUse">
<stop stop-color="#014363"/>
<stop offset="0.489583" stop-color="#015077"/>
<stop offset="0.541667" stop-color="#013F5E"/>
</linearGradient>
</defs>
</svg>
