<svg width="35" height="36" viewBox="0 0 35 36" fill="none" xmlns="http://www.w3.org/2000/svg">
<g filter="url(#filter0_ddiii_1502_14114)">
<rect x="3.07031" width="28" height="28" rx="14" fill="#009FFF"/>
</g>
<g opacity="0.9" filter="url(#filter1_d_1502_14114)">
<mask id="path-2-inside-1_1502_14114" fill="white">
<path d="M14.7351 6.65558C15.5637 4.52631 18.5767 4.52622 19.4051 6.65558L19.4373 6.73859C19.8593 7.82319 20.9726 8.47467 22.1248 8.31086L22.3299 8.28156C24.5242 7.9698 26.0129 10.4512 24.7049 12.2405L24.326 12.7581C23.682 13.6388 23.6821 14.8354 24.326 15.7161L24.7049 16.2337C26.0131 18.023 24.5243 20.5045 22.3299 20.1927L22.1248 20.1634C20.9726 19.9996 19.8594 20.6512 19.4373 21.7357L19.4051 21.8187C18.5767 23.9482 15.5636 23.9482 14.7351 21.8187L14.7029 21.7357C14.2809 20.6512 13.1675 19.9998 12.0154 20.1634L11.8103 20.1927C9.61572 20.5048 8.12699 18.0231 9.43534 16.2337L9.81327 15.7161C10.4572 14.8354 10.4572 13.6388 9.81327 12.7581L9.43534 12.2405C8.12701 10.4511 9.61573 7.96948 11.8103 8.28156L12.0154 8.31086C13.1676 8.47446 14.281 7.82314 14.7029 6.73859L14.7351 6.65558ZM17.0701 10.8665C15.1573 10.8665 13.6064 12.4674 13.6062 14.4417C13.6062 16.4162 15.1572 18.0169 17.0701 18.0169C18.983 18.0168 20.534 16.4162 20.534 14.4417C20.5338 12.4674 18.9829 10.8666 17.0701 10.8665Z"/>
</mask>
<path d="M14.7351 6.65558C15.5637 4.52631 18.5767 4.52622 19.4051 6.65558L19.4373 6.73859C19.8593 7.82319 20.9726 8.47467 22.1248 8.31086L22.3299 8.28156C24.5242 7.9698 26.0129 10.4512 24.7049 12.2405L24.326 12.7581C23.682 13.6388 23.6821 14.8354 24.326 15.7161L24.7049 16.2337C26.0131 18.023 24.5243 20.5045 22.3299 20.1927L22.1248 20.1634C20.9726 19.9996 19.8594 20.6512 19.4373 21.7357L19.4051 21.8187C18.5767 23.9482 15.5636 23.9482 14.7351 21.8187L14.7029 21.7357C14.2809 20.6512 13.1675 19.9998 12.0154 20.1634L11.8103 20.1927C9.61572 20.5048 8.12699 18.0231 9.43534 16.2337L9.81327 15.7161C10.4572 14.8354 10.4572 13.6388 9.81327 12.7581L9.43534 12.2405C8.12701 10.4511 9.61573 7.96948 11.8103 8.28156L12.0154 8.31086C13.1676 8.47446 14.281 7.82314 14.7029 6.73859L14.7351 6.65558ZM17.0701 10.8665C15.1573 10.8665 13.6064 12.4674 13.6062 14.4417C13.6062 16.4162 15.1572 18.0169 17.0701 18.0169C18.983 18.0168 20.534 16.4162 20.534 14.4417C20.5338 12.4674 18.9829 10.8666 17.0701 10.8665Z" fill="url(#paint0_radial_1502_14114)"/>
<path d="M14.7351 6.65558L14.2094 6.45101L14.2092 6.45141L14.7351 6.65558ZM19.4051 6.65558L19.931 6.45141L19.9308 6.45104L19.4051 6.65558ZM19.4373 6.73859L18.9114 6.94277L18.9115 6.94317L19.4373 6.73859ZM22.1248 8.31086L22.2042 8.86939L22.2046 8.86934L22.1248 8.31086ZM22.3299 8.28156L22.2505 7.72302L22.2501 7.72308L22.3299 8.28156ZM24.7049 12.2405L25.1601 12.5738L25.1603 12.5735L24.7049 12.2405ZM24.326 12.7581L23.8708 12.4249L23.8706 12.4251L24.326 12.7581ZM24.326 15.7161L23.8705 16.0491L23.8708 16.0494L24.326 15.7161ZM24.7049 16.2337L25.1603 15.9007L25.1601 15.9005L24.7049 16.2337ZM22.3299 20.1927L22.2501 20.7512L22.2505 20.7512L22.3299 20.1927ZM22.1248 20.1634L22.2046 19.6049L22.2042 19.6049L22.1248 20.1634ZM19.4373 21.7357L18.9116 21.531L18.9114 21.5315L19.4373 21.7357ZM19.4051 21.8187L19.9308 22.0232L19.931 22.0228L19.4051 21.8187ZM14.7351 21.8187L14.2092 22.0228L14.2094 22.0232L14.7351 21.8187ZM14.7029 21.7357L15.2288 21.5315L15.2287 21.5311L14.7029 21.7357ZM12.0154 20.1634L11.9361 19.6048L11.9356 19.6049L12.0154 20.1634ZM11.8103 20.1927L11.8898 20.7512L11.8901 20.7512L11.8103 20.1927ZM9.43534 16.2337L9.89075 16.5667L9.89096 16.5664L9.43534 16.2337ZM9.81327 15.7161L9.35787 15.3832L9.35766 15.3834L9.81327 15.7161ZM9.81327 12.7581L9.35766 13.0908L9.35787 13.0911L9.81327 12.7581ZM9.43534 12.2405L9.89096 11.9079L9.89075 11.9076L9.43534 12.2405ZM11.8103 8.28156L11.8901 7.72308L11.8898 7.72303L11.8103 8.28156ZM12.0154 8.31086L11.9356 8.86934L11.9361 8.8694L12.0154 8.31086ZM14.7029 6.73859L15.2287 6.94314L15.2288 6.94277L14.7029 6.73859ZM17.0701 10.8665L17.0701 10.3024H17.0701V10.8665ZM13.6062 14.4417L13.0421 14.4417V14.4417H13.6062ZM17.0701 18.0169V18.5811H17.0701L17.0701 18.0169ZM20.534 14.4417H21.0981V14.4417L20.534 14.4417ZM14.7351 6.65558L15.2609 6.86015C15.9029 5.21026 18.2375 5.2103 18.8793 6.86013L19.4051 6.65558L19.9308 6.45104C18.9159 3.84213 15.2244 3.84236 14.2094 6.45101L14.7351 6.65558ZM19.4051 6.65558L18.8792 6.85976L18.9114 6.94277L19.4373 6.73859L19.9632 6.53442L19.931 6.45141L19.4051 6.65558ZM19.4373 6.73859L18.9115 6.94317C19.4286 8.27186 20.7924 9.07011 22.2042 8.86939L22.1248 8.31086L22.0454 7.75232C21.1527 7.87923 20.2901 7.37452 19.963 6.53402L19.4373 6.73859ZM22.1248 8.31086L22.2046 8.86934L22.4097 8.84004L22.3299 8.28156L22.2501 7.72308L22.045 7.75238L22.1248 8.31086ZM22.3299 8.28156L22.4092 8.8401C24.1095 8.59854 25.2629 10.5212 24.2494 11.9076L24.7049 12.2405L25.1603 12.5735C26.7628 10.3813 24.939 7.34105 22.2505 7.72302L22.3299 8.28156ZM24.7049 12.2405L24.2497 11.9073L23.8708 12.4249L24.326 12.7581L24.7812 13.0914L25.1601 12.5738L24.7049 12.2405ZM24.326 12.7581L23.8706 12.4251C23.0816 13.5042 23.0817 14.9701 23.8706 16.0491L24.326 15.7161L24.7814 15.3832C24.2825 14.7008 24.2825 13.7735 24.7814 13.0911L24.326 12.7581ZM24.326 15.7161L23.8708 16.0494L24.2497 16.567L24.7049 16.2337L25.1601 15.9005L24.7812 15.3829L24.326 15.7161ZM24.7049 16.2337L24.2495 16.5667C25.263 17.953 24.1096 19.8758 22.4092 19.6342L22.3299 20.1927L22.2505 20.7512C24.939 21.1332 26.7631 18.093 25.1603 15.9007L24.7049 16.2337ZM22.3299 20.1927L22.4097 19.6342L22.2046 19.6049L22.1248 20.1634L22.045 20.7219L22.2501 20.7512L22.3299 20.1927ZM22.1248 20.1634L22.2042 19.6049C20.7924 19.4042 19.4286 20.2025 18.9116 21.531L19.4373 21.7357L19.963 21.9403C20.2901 21.0998 21.1528 20.595 22.0454 20.7219L22.1248 20.1634ZM19.4373 21.7357L18.9114 21.5315L18.8792 21.6145L19.4051 21.8187L19.931 22.0228L19.9632 21.9398L19.4373 21.7357ZM19.4051 21.8187L18.8793 21.6141C18.2375 23.2641 15.9028 23.2642 15.2609 21.6141L14.7351 21.8187L14.2094 22.0232C15.2243 24.6322 18.9159 24.6323 19.9308 22.0232L19.4051 21.8187ZM14.7351 21.8187L15.2611 21.6145L15.2288 21.5315L14.7029 21.7357L14.177 21.9398L14.2092 22.0228L14.7351 21.8187ZM14.7029 21.7357L15.2287 21.5311C14.7117 20.2025 13.3476 19.4044 11.9361 19.6048L12.0154 20.1634L12.0947 20.7219C12.9874 20.5952 13.8502 21.1 14.1772 21.9402L14.7029 21.7357ZM12.0154 20.1634L11.9356 19.6049L11.7306 19.6342L11.8103 20.1927L11.8901 20.7512L12.0952 20.7219L12.0154 20.1634ZM11.8103 20.1927L11.7309 19.6342C10.0305 19.876 8.87698 17.9532 9.89075 16.5667L9.43534 16.2337L8.97994 15.9007C7.37699 18.093 9.20096 21.1336 11.8898 20.7512L11.8103 20.1927ZM9.43534 16.2337L9.89096 16.5664L10.2689 16.0488L9.81327 15.7161L9.35766 15.3834L8.97973 15.901L9.43534 16.2337ZM9.81327 15.7161L10.2687 16.0491C11.0576 14.9701 11.0576 13.5042 10.2687 12.4251L9.81327 12.7581L9.35787 13.0911C9.85682 13.7735 9.85682 14.7007 9.35787 15.3832L9.81327 15.7161ZM9.81327 12.7581L10.2689 12.4254L9.89096 11.9079L9.43534 12.2405L8.97973 12.5732L9.35766 13.0908L9.81327 12.7581ZM9.43534 12.2405L9.89075 11.9076C8.877 10.5211 10.0305 8.59829 11.7309 8.84009L11.8103 8.28156L11.8898 7.72303C9.20096 7.34068 7.37703 10.3812 8.97994 12.5735L9.43534 12.2405ZM11.8103 8.28156L11.7306 8.84004L11.9356 8.86934L12.0154 8.31086L12.0952 7.75238L11.8901 7.72308L11.8103 8.28156ZM12.0154 8.31086L11.9361 8.8694C13.3477 9.06985 14.7117 8.27192 15.2287 6.94314L14.7029 6.73859L14.1772 6.53405C13.8502 7.37437 12.9875 7.87908 12.0947 7.75231L12.0154 8.31086ZM14.7029 6.73859L15.2288 6.94277L15.2611 6.85976L14.7351 6.65558L14.2092 6.45141L14.177 6.53442L14.7029 6.73859ZM17.0701 10.8665V10.3024C14.829 10.3024 13.0423 12.1728 13.0421 14.4417L13.6062 14.4417L14.1704 14.4418C14.1705 12.7619 15.4856 11.4307 17.0701 11.4307V10.8665ZM13.6062 14.4417H13.0421C13.0421 16.7108 14.8289 18.5811 17.0701 18.5811V18.0169V17.4528C15.4855 17.4528 14.1704 16.1216 14.1704 14.4417H13.6062ZM17.0701 18.0169L17.0701 18.5811C19.3112 18.581 21.0981 16.7108 21.0981 14.4417H20.534H19.9698C19.9698 16.1215 18.6547 17.4527 17.0701 17.4528L17.0701 18.0169ZM20.534 14.4417L21.0981 14.4417C21.098 12.1728 19.3111 10.3025 17.0701 10.3024L17.0701 10.8665L17.0701 11.4307C18.6546 11.4307 19.9697 12.762 19.9698 14.4418L20.534 14.4417Z" fill="white" mask="url(#path-2-inside-1_1502_14114)"/>
</g>
<defs>
<filter id="filter0_ddiii_1502_14114" x="-0.00111628" y="0" width="34.1429" height="35.6786" filterUnits="userSpaceOnUse" color-interpolation-filters="sRGB">
<feFlood flood-opacity="0" result="BackgroundImageFix"/>
<feColorMatrix in="SourceAlpha" type="matrix" values="0 0 0 0 0 0 0 0 0 0 0 0 0 0 0 0 0 0 127 0" result="hardAlpha"/>
<feOffset dy="4.60714"/>
<feGaussianBlur stdDeviation="1.53571"/>
<feComposite in2="hardAlpha" operator="out"/>
<feColorMatrix type="matrix" values="0 0 0 0 0.228227 0 0 0 0 0.177182 0 0 0 0 0.294978 0 0 0 0.5 0"/>
<feBlend mode="normal" in2="BackgroundImageFix" result="effect1_dropShadow_1502_14114"/>
<feColorMatrix in="SourceAlpha" type="matrix" values="0 0 0 0 0 0 0 0 0 0 0 0 0 0 0 0 0 0 127 0" result="hardAlpha"/>
<feOffset dy="3"/>
<feComposite in2="hardAlpha" operator="out"/>
<feColorMatrix type="matrix" values="0 0 0 0 0.240132 0 0 0 0 0.340749 0 0 0 0 0.761512 0 0 0 1 0"/>
<feBlend mode="normal" in2="effect1_dropShadow_1502_14114" result="effect2_dropShadow_1502_14114"/>
<feBlend mode="normal" in="SourceGraphic" in2="effect2_dropShadow_1502_14114" result="shape"/>
<feColorMatrix in="SourceAlpha" type="matrix" values="0 0 0 0 0 0 0 0 0 0 0 0 0 0 0 0 0 0 127 0" result="hardAlpha"/>
<feOffset dy="-1.5"/>
<feComposite in2="hardAlpha" operator="arithmetic" k2="-1" k3="1"/>
<feColorMatrix type="matrix" values="0 0 0 0 0.117469 0 0 0 0 0.69544 0 0 0 0 1 0 0 0 1 0"/>
<feBlend mode="normal" in2="shape" result="effect3_innerShadow_1502_14114"/>
<feColorMatrix in="SourceAlpha" type="matrix" values="0 0 0 0 0 0 0 0 0 0 0 0 0 0 0 0 0 0 127 0" result="hardAlpha"/>
<feOffset dy="3"/>
<feGaussianBlur stdDeviation="1.5"/>
<feComposite in2="hardAlpha" operator="arithmetic" k2="-1" k3="1"/>
<feColorMatrix type="matrix" values="0 0 0 0 0.418232 0 0 0 0 0.769768 0 0 0 0 1 0 0 0 1 0"/>
<feBlend mode="normal" in2="effect3_innerShadow_1502_14114" result="effect4_innerShadow_1502_14114"/>
<feColorMatrix in="SourceAlpha" type="matrix" values="0 0 0 0 0 0 0 0 0 0 0 0 0 0 0 0 0 0 127 0" result="hardAlpha"/>
<feOffset dy="1.5"/>
<feComposite in2="hardAlpha" operator="arithmetic" k2="-1" k3="1"/>
<feColorMatrix type="matrix" values="0 0 0 0 0.709804 0 0 0 0 0.929412 0 0 0 0 0.992157 0 0 0 1 0"/>
<feBlend mode="normal" in2="effect4_innerShadow_1502_14114" result="effect5_innerShadow_1502_14114"/>
</filter>
<filter id="filter1_d_1502_14114" x="7.81701" y="5.05859" width="18.5066" height="20.614" filterUnits="userSpaceOnUse" color-interpolation-filters="sRGB">
<feFlood flood-opacity="0" result="BackgroundImageFix"/>
<feColorMatrix in="SourceAlpha" type="matrix" values="0 0 0 0 0 0 0 0 0 0 0 0 0 0 0 0 0 0 127 0" result="hardAlpha"/>
<feOffset dy="1.1283"/>
<feGaussianBlur stdDeviation="0.564151"/>
<feComposite in2="hardAlpha" operator="out"/>
<feColorMatrix type="matrix" values="0 0 0 0 0 0 0 0 0 0 0 0 0 0 0 0 0 0 0.25 0"/>
<feBlend mode="normal" in2="BackgroundImageFix" result="effect1_dropShadow_1502_14114"/>
<feBlend mode="normal" in="SourceGraphic" in2="effect1_dropShadow_1502_14114" result="shape"/>
</filter>
<radialGradient id="paint0_radial_1502_14114" cx="0" cy="0" r="1" gradientUnits="userSpaceOnUse" gradientTransform="translate(17.1042 14.2371) rotate(90) scale(9.1785 8.15893)">
<stop offset="0.548077" stop-color="white"/>
<stop offset="1" stop-color="#F2EDFF"/>
</radialGradient>
</defs>
</svg>
